<svg width="24" height="15" viewBox="0 0 24 15" fill="none" xmlns="http://www.w3.org/2000/svg">
<path d="M5.97959 9.71321L7.66431 3.41694C7.67122 3.38882 7.68775 3.36401 7.71103 3.34679C7.73432 3.32958 7.76289 3.32105 7.7918 3.32268C7.82071 3.32432 7.84814 3.33602 7.86933 3.35575C7.89052 3.37548 7.90414 3.40201 7.90783 3.43073L8.37496 6.73891C10.0352 5.10473 11.5085 4.39102 11.9083 4.21642C11.9363 4.20363 11.9586 4.18087 11.9708 4.15256C11.9829 4.12424 11.9841 4.09241 11.9741 4.06327L10.6264 0.177682C10.618 0.153052 10.6021 0.131668 10.581 0.116552C10.5598 0.101437 10.5344 0.0933538 10.5084 0.0934456H4.88299C4.85698 0.0933538 4.83161 0.101437 4.81044 0.116552C4.78928 0.131668 4.77341 0.153052 4.76506 0.177682L0.00648041 14.0215C0.00015816 14.0404 -0.00157065 14.0606 0.00143701 14.0803C0.00444466 14.1 0.0121023 14.1187 0.0237765 14.1349C0.0354507 14.151 0.0508059 14.1642 0.0685717 14.1732C0.0863376 14.1823 0.106004 14.187 0.125943 14.1869H3.8017C3.82795 14.1871 3.85358 14.1789 3.87482 14.1635C3.89605 14.1481 3.91176 14.1262 3.91963 14.1012C4.42691 12.5585 5.12129 11.0839 5.98725 9.71015L5.97959 9.71321Z" fill="white"/>
<path d="M4.72511 14.0215C5.15089 12.8391 7.97357 5.70509 14.7875 3.89938C14.8178 3.89265 14.8444 3.87483 14.8622 3.84943C14.88 3.82402 14.8876 3.79288 14.8836 3.76213C14.8796 3.73138 14.8642 3.70326 14.8404 3.6833C14.8167 3.66335 14.7863 3.65301 14.7553 3.65433H12.8455C12.8283 3.65456 12.8113 3.65127 12.7955 3.64467C12.7797 3.63808 12.7653 3.6283 12.7534 3.61596C12.7415 3.60362 12.7323 3.58897 12.7262 3.57292C12.7202 3.55686 12.7175 3.53974 12.7184 3.52261V0.125598C12.7184 0.108976 12.7217 0.0925185 12.7281 0.0771808C12.7345 0.061843 12.7439 0.0479296 12.7557 0.0362474C12.7675 0.0245652 12.7815 0.0153466 12.7969 0.009126C12.8124 0.0029054 12.8289 -0.00019337 12.8455 9.33991e-06H23.8728C23.9061 9.33991e-06 23.938 0.0132409 23.9616 0.0367933C23.9851 0.0603458 23.9983 0.0922897 23.9983 0.125598V8.58597C23.9983 8.61928 23.9851 8.65122 23.9616 8.67478C23.938 8.69833 23.9061 8.71156 23.8728 8.71156H19.9167C19.8834 8.71156 19.8515 8.69833 19.8279 8.67478C19.8044 8.65122 19.7911 8.61928 19.7911 8.58597V7.25198C19.7912 7.23318 19.787 7.21461 19.7788 7.19768C19.7706 7.18074 19.7587 7.16589 19.744 7.15423C19.7292 7.14258 19.712 7.13443 19.6937 7.1304C19.6753 7.12637 19.6563 7.12657 19.638 7.13098C18.5766 7.39594 12.3263 9.15265 10.4486 14.1073C10.4396 14.1308 10.4236 14.151 10.4028 14.1652C10.382 14.1795 10.3574 14.187 10.3322 14.1869H4.84304C4.82312 14.1871 4.80344 14.1824 4.78569 14.1734C4.76794 14.1643 4.75263 14.1511 4.74106 14.1349C4.72949 14.1186 4.722 14.0999 4.71923 14.0801C4.71645 14.0604 4.71847 14.0403 4.72511 14.0215Z" fill="url(#paint0_linear_177_2)"/>
<path d="M11.4596 14.1869H23.8745C23.9075 14.1869 23.9392 14.1739 23.9627 14.1507C23.9863 14.1275 23.9997 14.0959 24.0001 14.0629V9.97819C24.0001 9.94488 23.9868 9.91294 23.9633 9.88938C23.9397 9.86583 23.9078 9.8526 23.8745 9.8526H16.2565C15.2683 9.86544 14.3208 10.2479 13.6007 10.9247C12.9069 11.548 12.0952 12.5175 11.3478 14.0108C11.3395 14.0297 11.336 14.0503 11.3375 14.0709C11.3391 14.0914 11.3457 14.1113 11.3567 14.1287C11.3678 14.1461 11.3829 14.1605 11.4009 14.1707C11.4188 14.1808 11.439 14.1864 11.4596 14.1869Z" fill="white"/>
<defs>
<linearGradient id="paint0_linear_177_2" x1="23.9983" y1="0.186146" x2="4.71802" y2="14.0008" gradientUnits="userSpaceOnUse">
<stop stop-color="#F2181C"/>
<stop offset="0.676474" stop-color="#7836B3"/>
<stop offset="1" stop-color="#0005F2"/>
</linearGradient>
</defs>
</svg>
